Simulation
nRows=16
nColumns=15
endheader
time  TH_x TH_y TH_z SC_y  SC_z  SC_x  AC_y  AC_z  AC_x  GH_y  GH_z  GH_yy  EL_x  PS_y
0.0  0.000000  0.000000  0.000000  -29.860797277659536  -0.8653305302770801  1.52973868319816  56.68834162513636  4.37259851025923  -7.5900320232932454  24.370085634063024  -5.8677089676487775  22.604507847124104  25.50553402618638  0.000000
0.034  0.000000  0.000000  0.000000  -29.77278366983788  -1.0358777396461467  1.6377699193973148  56.96174168195604  4.294182944154108  -7.554404346573787  24.726210944543237  -4.756450093555896  21.19527468378941  25.59553102574491  0.000000
0.068  0.000000  0.000000  0.000000  -29.563077185092286  -1.1309253945596778  1.7779935186277822  57.197829308371126  4.10128343047422  -7.588888688360868  25.437304354662103  -3.46708649439647  19.325396907700522  25.68135598245482  0.000000
0.10200000000000001  0.000000  0.000000  0.000000  -29.44408619894812  -1.2297245664511407  1.9764845510737141  57.3812043241108  3.940787433198834  -7.649731292971309  26.175797679113344  -2.115485993962095  17.289127375975582  25.698088432376547  0.000000
0.136  0.000000  0.000000  0.000000  -29.3313171859355  -1.3180090256859673  2.211427282089087  57.64343645508809  3.827576452534635  -7.706332394789302  26.927855891035286  -0.6698229443786333  15.175853723961454  25.722971172098433  0.000000
0.17  0.000000  0.000000  0.000000  -29.261733868380052  -1.379862783812511  2.482326892752636  57.9487748429321  3.7754762433110765  -7.728783319873928  27.713440110897427  0.8541982832575902  13.021540729007222  25.74317271338642  0.000000
0.20400000000000001  0.000000  0.000000  0.000000  -29.210154347568274  -1.4250742159400362  2.765117467461205  58.30134426905664  3.7916448663822666  -7.728455205479803  28.50735224525442  2.4533706206788626  10.811433344734478  25.7573779844584  0.000000
0.23800000000000002  0.000000  0.000000  0.000000  -29.197175149961723  -1.4482353469687497  3.059638432607427  58.692721314831545  3.8801876791041483  -7.69949304077681  29.3276024810574  4.115608404997439  8.572754042418358  25.76050651147908  0.000000
0.272  0.000000  0.000000  0.000000  -29.204564433670388  -1.444748023185481  3.359921279276491  59.11007876699191  4.036677349464956  -7.64315021773805  30.159970941263296  5.8292387926475016  6.300498852054819  25.75329602514338  0.000000
0.30600000000000005  0.000000  0.000000  0.000000  -29.24340529780426  -1.4108862177477681  3.659093816483021  59.552219201200344  4.267610596584426  -7.560473856155888  31.012416090343194  7.5900721577788355  4.014071063099047  25.731191483887155  0.000000
0.34  0.000000  0.000000  0.000000  -29.304688999703114  -1.340274083248768  3.961607679593245  59.99414157544079  4.561720617889208  -7.454994995796691  31.87162647187037  9.383904533197768  1.71082127915875  25.696587145468822  0.000000
0.374  0.000000  0.000000  0.000000  -29.392385295641343  -1.2272441750674359  4.276410880645599  60.445701847752304  4.892303549077973  -7.320981887905417  32.74044096928948  11.211641650312387  -0.5976712533609458  25.64841230699066  0.000000
0.40800000000000003  0.000000  0.000000  0.000000  -29.500444195384365  -1.070832339865402  4.598119810029194  60.90363393188461  5.24909614278451  -7.145522533375775  33.616866146847954  13.06425592584776  -2.9064620448045115  25.596120935688813  0.000000
0.44200000000000006  0.000000  0.000000  0.000000  -29.625230657172462  -0.87453030664538  4.930907169178941  61.36920050890092  5.617012265058119  -6.93276219361619  34.49963891384131  14.937444812480178  -5.210177312204625  25.53913977403649  0.000000
0.47600000000000003  0.000000  0.000000  0.000000  -29.759703416038487  -0.6491287953555368  5.2863084868439065  61.83110815600226  5.989843523002495  -6.703807026481303  35.386974132892234  16.823934543465757  -7.503750070601306  25.478651937551334  0.000000
0.51  0.000000  0.000000  0.000000  -29.89185723788271  -0.4119084759351967  5.665617253482622  62.27900832833908  6.381709785263285  -6.48745783804777  36.27525464819059  18.717719402294474  -9.785029213592571  25.416288825889772  0.000000
